HIERARCHY
ROOT Hips
{
	OFFSET -0.001795 -0.223333 0.028219
	CHANNELS 6 Xposition Yposition Zposition Zrotation Yrotation Xrotation 
	JOINT LeftUpLeg
	{
		OFFSET 0.069520 -0.091406 -0.006815
		CHANNELS 3 Zrotation Yrotation Xrotation
		JOINT LeftLeg
		{
			OFFSET 0.034277 -0.375199 -0.004496
			CHANNELS 3 Zrotation Yrotation Xrotation
			JOINT LeftFoot
			{
				OFFSET -0.013596 -0.397961 -0.043693
				CHANNELS 3 Zrotation Yrotation Xrotation
				JOINT LeftToe
				{
					OFFSET 0.026358 -0.055791 0.119288
					CHANNELS 3 Zrotation Yrotation Xrotation
					End Site
					{
						OFFSET 0.000000 0.000000 0.000000
					}
				}
			}
		}
	}
	JOINT RightUpLeg
	{
		OFFSET -0.067670 -0.090522 -0.004320
		CHANNELS 3 Zrotation Yrotation Xrotation
		JOINT RightLeg
		{
			OFFSET -0.038290 -0.382569 -0.008850
			CHANNELS 3 Zrotation Yrotation Xrotation
			JOINT RightFoot
			{
				OFFSET 0.015774 -0.398415 -0.042312
				CHANNELS 3 Zrotation Yrotation Xrotation
				JOINT RightToe
				{
					OFFSET -0.025372 -0.048144 0.123348
					CHANNELS 3 Zrotation Yrotation Xrotation
					End Site
					{
						OFFSET 0.000000 0.000000 0.000000
					}
				}
			}
		}
	}
	JOINT Spine
	{
		OFFSET -0.002533 0.108963 -0.026696
		CHANNELS 3 Zrotation Yrotation Xrotation
		JOINT Spine1
		{
			OFFSET 0.005487 0.135180 0.001092
			CHANNELS 3 Zrotation Yrotation Xrotation
			JOINT Spine2
			{
				OFFSET 0.001457 0.052922 0.025425
				CHANNELS 3 Zrotation Yrotation Xrotation
				JOINT Neck
				{
					OFFSET -0.002778 0.213870 -0.042857
					CHANNELS 3 Zrotation Yrotation Xrotation
					JOINT Head
					{
						OFFSET 0.005152 0.064970 0.051349
						CHANNELS 3 Zrotation Yrotation Xrotation
						End Site
						{
							OFFSET 0.000000 0.000000 0.000000
						}
					}
				}
				JOINT LeftShoulder
				{
					OFFSET 0.078845 0.121749 -0.034090
					CHANNELS 3 Zrotation Yrotation Xrotation
					JOINT LeftArm
					{
						OFFSET 0.090977 0.030469 -0.008868
						CHANNELS 3 Zrotation Yrotation Xrotation
						JOINT LeftForeArm
						{
							OFFSET 0.259612 -0.012772 -0.027456
							CHANNELS 3 Zrotation Yrotation Xrotation
							JOINT LeftHand
							{
								OFFSET 0.249234 0.008986 -0.001171
								CHANNELS 3 Zrotation Yrotation Xrotation
								End Site
								{
									OFFSET 0.000000 0.000000 0.000000
								}
							}
						}
					}
				}
				JOINT RightShoulder
				{
					OFFSET -0.081759 0.118833 -0.038615
					CHANNELS 3 Zrotation Yrotation Xrotation
					JOINT RightArm
					{
						OFFSET -0.096012 0.032551 -0.009143
						CHANNELS 3 Zrotation Yrotation Xrotation
						JOINT RightForeArm
						{
							OFFSET -0.253742 -0.013329 -0.021401
							CHANNELS 3 Zrotation Yrotation Xrotation
							JOINT RightHand
							{
								OFFSET -0.255298 0.007772 -0.005559
								CHANNELS 3 Zrotation Yrotation Xrotation
								End Site
								{
									OFFSET 0.000000 0.000000 0.000000
								}
							}
						}
					}
				}
			}
		}
	}
}
MOTION
Frames: 7
Frame Time: 0.050000
0.000000 0.757316 0.000000 -22.681745 10.637489 87.532154 -6.256800 -1.734071 -46.600935 1.435412 -1.126705 104.884139 7.654426 22.572597 -84.981695 0.000000 0.000000 0.000000 -56.944702 19.672895 -1.526113 72.422715 -51.017287 35.411016 12.308377 36.176348 17.370737 0.000000 0.000000 0.000000 0.764556 -3.204177 38.638138 4.280987 2.282402 -51.668652 15.621127 19.230666 43.482925 20.588863 -13.196990 -5.444481 0.000000 0.000000 0.000000 -48.352090 -18.243904 -6.418994 -25.074397 -8.580905 -1.742221 1.423659 -39.324365 2.979924 0.000000 0.000000 0.000000 35.524072 2.063507 17.630863 41.811609 30.065535 0.636930 -24.048817 33.556841 -2.001620 0.000000 0.000000 0.000000 
0.005378 0.756253 0.004062 -23.725381 10.853760 87.689832 11.701721 -1.749591 -39.714885 -28.142709 28.160311 79.410005 4.642676 19.906718 -92.868512 0.000000 0.000000 0.000000 -51.643125 13.604118 -12.160232 45.733926 -49.684886 61.841739 25.470857 28.277234 43.070980 0.000000 0.000000 0.000000 -2.235265 -0.572500 39.649622 15.517948 3.973608 -49.910829 6.941922 23.617620 42.555156 28.987410 -13.506113 -16.043250 0.000000 0.000000 0.000000 -48.172211 -18.884502 -7.922852 -19.885052 -2.180325 -1.689699 -10.658542 -44.173859 7.958199 0.000000 0.000000 0.000000 37.245231 7.509455 26.150014 41.648103 27.087079 -0.331207 -23.628926 32.544917 -3.247130 0.000000 0.000000 0.000000 
0.011115 0.744724 0.005671 -21.709599 7.895939 88.653456 13.143258 -0.622069 -45.288517 -40.182627 30.988692 64.706973 5.357495 17.368390 -91.390220 0.000000 0.000000 0.000000 -48.773832 11.757682 -15.465411 42.119701 -49.400808 67.375618 11.343701 20.583019 18.771663 0.000000 0.000000 0.000000 -3.641167 0.945807 37.373666 14.084305 3.713770 -49.384090 8.628768 20.359482 40.766849 25.446199 -17.809391 -2.574284 0.000000 0.000000 0.000000 -50.829302 -15.569233 -7.697226 -16.722054 2.385212 -0.849109 -13.527238 -40.349133 7.699905 0.000000 0.000000 0.000000 28.852330 3.143825 13.301705 45.499231 12.637934 -1.063869 -3.949537 40.564929 1.347235 0.000000 0.000000 0.000000 
0.016617 0.742336 0.003697 -18.975979 7.762443 88.550708 12.758379 0.946895 -57.120514 -24.989163 24.995815 76.997540 7.245958 16.991339 -86.632399 0.000000 0.000000 0.000000 -41.354848 9.957436 -15.535244 47.548552 -46.804596 60.209194 7.140554 25.594618 3.251245 0.000000 0.000000 0.000000 -3.519269 0.627487 39.349063 14.057482 3.226871 -48.145307 6.091665 18.756943 36.301324 24.818854 -12.247663 -11.193607 0.000000 0.000000 0.000000 -44.701865 -12.759471 -8.034481 -21.874362 5.957102 -0.984475 -12.476850 -42.431227 6.724188 0.000000 0.000000 0.000000 22.757464 0.728344 8.085041 49.902900 6.765548 -1.382201 -3.401010 41.405102 1.412073 0.000000 0.000000 0.000000 
0.020882 0.732148 -0.000180 -18.859338 4.903565 86.079437 10.178322 2.329923 -69.435251 -19.122181 23.085090 86.249136 7.138745 20.000179 -80.741954 0.000000 0.000000 0.000000 -42.320010 8.143245 -22.899914 43.686168 -50.711187 71.450715 3.398445 32.206358 -7.259762 0.000000 0.000000 0.000000 -4.888048 2.421049 42.713065 12.750043 4.392808 -56.670420 6.126870 16.585406 44.781850 21.917910 -7.116853 -22.974552 0.000000 0.000000 0.000000 -41.877534 -12.692721 -5.170773 -22.101758 4.263703 -1.313417 -8.957238 -40.877586 4.465018 0.000000 0.000000 0.000000 19.781003 0.888342 6.497278 50.477844 6.236767 -2.369467 -2.351074 40.724631 1.563611 0.000000 0.000000 0.000000 
0.024239 0.722531 -0.004432 -17.022755 3.031232 83.049768 7.274090 1.892412 -74.193427 -15.652082 18.944966 88.401734 7.963799 21.190882 -72.378223 0.000000 0.000000 0.000000 -38.785084 6.612487 -24.712765 44.105085 -48.237914 71.788044 -0.849320 36.011786 -19.124427 0.000000 0.000000 0.000000 -5.084428 2.876358 45.385455 7.848299 2.892914 -52.845070 6.406469 11.940996 37.916197 17.233811 -3.318571 -29.384200 0.000000 0.000000 0.000000 -39.559723 -11.069411 -1.973643 -24.237247 1.735350 -1.715329 -6.071459 -37.410955 3.348576 0.000000 0.000000 0.000000 14.630123 0.955511 3.345575 53.461891 2.817458 -2.709227 0.710024 39.294437 2.251402 0.000000 0.000000 0.000000 
0.026594 0.708061 -0.008625 -15.986474 0.132936 81.530038 7.802986 3.297760 -77.921585 -17.375761 22.468900 90.574774 8.000056 24.917249 -60.789249 0.000000 0.000000 0.000000 -36.410878 6.174637 -25.974720 40.678709 -44.360679 74.583352 -2.409328 32.766885 -23.510253 0.000000 0.000000 0.000000 -5.261050 3.535927 44.619574 5.816495 2.268071 -48.828410 3.495558 10.064370 34.716518 15.444727 -4.059978 -23.498263 0.000000 0.000000 0.000000 -34.123832 -9.389839 -0.264431 -27.363429 -1.588459 -2.190694 -3.133296 -37.315498 2.408471 0.000000 0.000000 0.000000 19.953667 1.756159 3.164129 47.746882 1.801497 -3.200421 0.004107 41.006563 1.842987 0.000000 0.000000 0.000000 
